<?xml version="1.0" ?><svg xmlns="http://www.w3.org/2000/svg" xmlns:xlink="http://www.w3.org/1999/xlink" version="1.1" viewBox="0 0 512 512" style="enable-background:new 0 0 512 512;" xml:space="preserve"><g id="_x34_7_x2C__Finance_x2C__Money_x2C__Budget_x2C__Investment_x2C__Accounting_x2C__Economics"><g><g><polygon style="fill:#9DCAFC;" points="506,51.002 501.75,103.442 486.38,88.062 413.971,160.471 371.471,117.972      298.442,191.001 275.752,199.501 247.878,191.001 285.692,148.751 368.971,65.472 421.471,117.972 468.88,70.562 453.56,55.252         "/><path style="fill:#9DCAFC;" d="M489.6,191.001c-10.343,0-238.081,0-255.297,0c-9.06,0-16.4,7.34-16.4,16.4v37.2     c0,8.993,7.334,16.4,16.4,16.4l119.365,11.667L471,261c9.57,0,16.167,0,18.6,0c9.06,0,16.4-7.34,16.4-16.4v-37.2     C506,198.427,498.69,191.001,489.6,191.001z"/><path style="fill:#9DCAFC;" d="M471,261c-10.343,0-201.382,0-218.597,0c-9.06,0-16.4,7.34-16.4,16.4v37.2     c0,8.993,7.334,16.4,16.4,16.4l109.299,15l109.299-15c9.06,0,16.4-7.34,16.4-16.4v-37.2C487.4,268.427,480.09,261,471,261z"/><path style="fill:#9DCAFC;" d="M489.6,330.999c-10.343,0-201.382,0-218.597,0c-9.06,0-16.4,7.34-16.4,16.4v37.2     c0,8.993,7.334,16.4,16.4,16.4l111.665,13.667L471,400.998c9.368,0,15.979,0,18.6,0c9.06,0,16.4-7.34,16.4-16.4v-37.2     C506,338.426,498.69,330.999,489.6,330.999z"/><path style="fill:#9DCAFC;" d="M471,400.998c-10.343,0-191.382,0-208.598,0c-9.06,0-16.4,7.34-16.4,16.4v37.2     c0,8.993,7.334,16.4,16.4,16.4c10.317,0,191.308,0,208.598,0c9.06,0,16.4-7.34,16.4-16.4v-37.2     C487.4,408.425,480.09,400.998,471,400.998z"/><path style="fill:#FFFFFF;" d="M441.11,408.918l-8.36,4.57c-4.96,2.71-9.04,6.79-11.75,11.75l-4.58,8.37     c-2.5,4.58-9.08,4.58-11.59,0l-4.57-8.37c-2.72-4.96-6.79-9.04-11.75-11.75l-8.37-4.57c-4.582-2.512-4.57-9.097,0-11.6l8.37-4.57     c4.96-2.71,9.03-6.79,11.75-11.75l4.57-8.37c2.51-4.58,9.09-4.58,11.59,0l4.58,8.37c2.71,4.96,6.79,9.04,11.75,11.75l8.36,4.57     C445.664,399.813,445.722,406.399,441.11,408.918z"/><path style="fill:#FFFFFF;" d="M247.113,460.518c-9.52,6.74-20.04,10.48-31.11,10.48h-41.999V226.19h64.169     c13.44,6.46,25.36,18.65,34.65,34.81C308.702,323.334,296.369,425.645,247.113,460.518z"/><path style="fill:#9DCAFC;" d="M212.053,237.54c23.27,21.56,38.95,62.049,38.95,108.459c0,68.769-34.43,124.559-76.999,124.999     c-0.17,0-0.33,0-0.5,0c-19.33,0-37.02-11.42-50.589-30.299c-14.553-21.263-18.622-37.861-20.24-43.92     c-4.29-15.52-6.67-32.699-6.67-50.779c0-51.299,19.16-95.379,46.569-114.649C159.629,219,189.253,219,212.053,237.54z"/><polygon style="fill:#9DCAFC;" points="111.614,236.61 91.515,256.72 74.671,251.167 70.295,235.5 90.395,215.39      106.504,218.834    "/><path style="fill:#FFFFFF;" d="M286.002,140.201c0.323,46.514-31.485,85.799-73.949,97.339     c-21.156,5.757-44.978,4.535-66.709-5.16c-9.536-4.192-20.107-1.823-26.98,5.05l-2.97,2.96l-28.78-28.78l2.96-2.97     c7.09-7.09,9.13-17.82,5.05-26.98c-5.8-13-8.9-27.46-8.6-42.68c1.07-54.449,46.309-98.399,100.779-97.979     C241.393,41.433,285.572,85.612,286.002,140.201z"/><path style="fill:#9DCAFC;" d="M186.003,66.002c41.42,0,74.999,33.58,74.999,74.999S227.423,216,186.003,216     s-74.999-33.58-74.999-74.999S144.584,66.002,186.003,66.002z"/><path style="fill:#FFFFFF;" d="M196.003,277.64c22.644,36.49,22.656,100.209,0,136.718c-7.12,11.5-15.75,18.64-22.5,18.64     c-6.61,0-15.03-6.86-22.07-17.95c-4.154-6.033-7.703-13.443-10.43-22.719c-12.5-38.353-7.733-86.113,10-114.689     c7.12-11.5,15.75-18.64,22.5-18.64S188.883,266.14,196.003,277.64z"/><path style="fill:#9DCAFC;" d="M155.414,401.278c4.58,2.51,4.58,9.09,0,11.59c-0.104,0.057-8.924,4.883-8.37,4.58     c-4.96,2.71-9.03,6.79-11.75,11.75l-4.57,8.36c-2.494,4.56-9.058,4.632-11.59,0l-4.58-8.36c-2.71-4.96-6.79-9.04-11.75-11.75     l-8.36-4.58c-4.59-2.5-4.59-9.08,0-11.59l8.23-4.5c0.84-0.628,7.437-3.688,11.88-11.82l4.58-8.37c2.5-4.58,9.08-4.58,11.59,0     c4.13,7.017,6.389,14.658,16.32,20.12L155.414,401.278z"/><polygon style="fill:#FFFFFF;" points="98.574,263.78 81.185,281.18 54.838,268.833 45.835,245.83 63.225,228.43 70.295,235.5      91.515,256.72    "/><polygon style="fill:#FFFFFF;" points="231.113,122.152 175.084,178.181 141.004,144.091 155.144,129.951 175.084,149.891      216.973,108.012    "/><path style="fill:#9DCAFC;" d="M81.185,281.18l-33.98,33.97c-7.79,7.8-20.44,7.8-28.24,0l-7.11-7.11c-7.8-7.8-7.8-20.45,0-28.24     l33.98-33.97L81.185,281.18z"/><path style="fill:#4269A7;" d="M511,244.6v-37.199c0-11.8-9.6-21.4-21.4-21.4H310.513l60.958-60.958l38.964,38.963     c1.951,1.953,5.119,1.953,7.07,0l68.873-68.872l11.834,11.843c3.006,3.008,8.177,1.112,8.52-3.13l4.25-52.44     c0.25-3.062-2.294-5.626-5.388-5.388l-52.44,4.25c-4.244,0.344-6.138,5.514-3.13,8.52l11.782,11.773L421.47,110.9l-48.964-48.963     c-1.953-1.955-5.122-1.95-7.07,0l-74.537,74.538c-2.367-55.961-48.423-100.472-104.882-100.472     c-56.848,0-103.87,45.985-104.992,102.884c-0.308,15.602,2.73,30.677,9.03,44.807c3.208,7.198,1.596,15.803-4.013,21.412     l-2.967,2.967c-1.953,1.952-1.953,5.118,0,7.07l0.249,0.249l-13.029,13.035l-3.537-3.537c-1.953-1.955-5.122-1.95-7.07,0     l-51.37,51.37c-9.758,9.758-9.759,25.55-0.001,35.309l7.115,7.116c0.001,0,0.001,0,0.001,0.001     c9.735,9.733,25.576,9.736,35.31-0.001c4.275-4.275,45.088-45.089,51.37-51.37c1.953-1.952,1.953-5.118,0-7.07l-3.528-3.528     l13.03-13.035l0.247,0.247c1.951,1.953,5.119,1.953,7.07,0c2.15-1.888,4.347-5.322,9.87-7.377     c-23.291,23.607-37.798,64.73-37.798,109.447c0,16.728,1.986,32.933,5.859,48.256l-4.821,2.637     c-3.724,2.037-6.037,5.939-6.037,10.184c0,4.244,2.313,8.146,6.037,10.183l8.366,4.575c4.127,2.258,7.502,5.633,9.76,9.76     l4.575,8.366c1.139,2.083,2.874,3.701,4.913,4.744c13.274,17.99,32.011,31.44,54.268,31.285c0.17,0,41.909,0.008,42.08,0.008     c10.252,0,20.186-2.884,29.439-8.393c3.992,5.172,10.252,8.393,16.96,8.393H471c11.8,0,21.4-9.6,21.4-21.4v-37.199     c0-4.192-1.23-8.095-3.322-11.4h0.521c11.8,0,21.4-9.6,21.4-21.4v-37.199c0-11.8-9.6-21.4-21.4-21.4h-0.521     c2.092-3.305,3.322-7.208,3.322-11.4V277.4c0-4.192-1.23-8.095-3.322-11.4h0.521C501.399,266,511,256.399,511,244.6z      M501,207.401V244.6c0,6.286-5.114,11.4-11.4,11.4c-9.328,0-203.216,0-213.914,0c-7.908-13.083-17.396-23.297-28.016-30.17     c11.024-8.058,20.432-18.202,27.637-29.83H489.6C495.886,196.001,501,201.115,501,207.401z M368.971,72.543l48.964,48.963     c1.951,1.953,5.119,1.953,7.07,0l47.41-47.41c1.952-1.95,1.953-5.12-0.001-7.072l-7.668-7.663l35.794-2.9l-2.9,35.794     l-7.724-7.728c-1.946-1.948-5.117-1.958-7.072-0.001L413.971,153.4l-38.964-38.963c-1.953-1.955-5.122-1.95-7.07,0     l-71.564,71.565h-15.595c5.174-10.807,8.555-22.608,9.745-35.008L368.971,72.543z M43.674,311.616     c-5.834,5.836-15.33,5.836-21.17-0.001l-7.115-7.115c-5.836-5.837-5.836-15.332,0-21.169l30.438-30.438l28.284,28.284     L43.674,311.616z M81.182,274.106l-28.284-28.283l10.327-10.327c18.465,18.465,9.323,9.324,28.283,28.284L81.182,274.106z      M91.515,249.646l-14.149-14.149l13.029-13.035l14.149,14.15L91.515,249.646z M115.406,233.33l-21.731-21.731     c8.061-8.522,10.288-21.266,5.514-31.977c-5.696-12.778-8.443-26.417-8.165-40.539c1.016-51.481,43.555-93.081,94.995-93.081     c51.971,0,94.578,42.507,94.981,94.242c0.403,51.725-41.337,94.717-93.079,95.737c-14.094,0.28-27.761-2.47-40.539-8.165     C136.628,223.022,123.892,225.304,115.406,233.33z M105.207,413.062l-8.366-4.575c-0.728-0.397-0.836-1.055-0.836-1.41     c0-0.356,0.108-1.014,0.836-1.411l8.1-4.43c0.009-0.005,0.018-0.01,0.027-0.015l0.239-0.131     c5.809-3.177,10.557-7.926,13.734-13.734l4.575-8.366c0.614-1.124,2.211-1.114,2.821,0c3.772,6.34,5.241,11.351,11.321,17.026     c5.331,4.819,8.139,5.481,15.355,9.649c1.125,0.615,1.113,2.213,0,2.821l-8.366,4.575c-5.809,3.177-10.557,7.926-13.734,13.734     l-4.575,8.366c-0.397,0.728-1.055,0.836-1.411,0.836c-0.355,0-1.013-0.108-1.41-0.836l-4.575-8.366     C115.764,420.987,111.015,416.238,105.207,413.062z M157.811,396.892c-7.23-4.084-9.343-4.763-12.434-7.375     c-11.722-37.351-6.64-82.625,9.877-109.246c6.922-11.18,14.311-16.271,18.249-16.271s11.327,5.092,18.252,16.276     c21.58,34.779,21.714,96.45-0.003,131.451c-6.922,11.18-14.311,16.271-18.249,16.271c-3.368,0-8.999-3.537-14.838-11.284     C165.969,411.847,165.421,401.055,157.811,396.892z M131.684,443.801c1.389-0.997,2.576-2.287,3.426-3.84l4.575-8.366     c2.258-4.127,5.633-7.502,9.76-9.76l0.413-0.226c7.501,10.332,16.139,16.388,23.645,16.388c8.606,0,18.606-7.853,26.748-21.003     c23.646-38.104,23.649-103.884,0.003-141.988C192.11,261.853,182.11,254,173.504,254s-18.606,7.853-26.748,21.003     c-13.44,21.657-21.467,57.233-16.059,94.698c-5.68-3.258-12.849-1.186-15.955,4.49l-4.575,8.366     c-1.188,2.171-2.692,4.127-4.446,5.83c-3.122-13.511-4.717-27.73-4.717-42.388c0-46.93,16.556-89.311,42.367-109.023     c21.512,9.573,45.263,11.414,67.216,6.094c21.9,21.762,35.415,60.86,35.415,102.928c0,66.167-32.523,119.999-72.499,119.999     C158.55,465.998,143.912,458.171,131.684,443.801z M232.553,437.022c15.122-24.389,23.45-56.715,23.45-91.023     c0-42.284-13.144-81.998-34.702-106.137c5.949-2.142,11.649-4.815,17.05-7.95c29.649,16.078,50.152,62.408,50.152,114.087     c0,39.152-12.695,87.805-43.691,110.108c-1.106,0.576-12.317,9.891-28.808,9.891h-10.482     C215.562,459.395,224.735,449.63,232.553,437.022z M482.4,417.398v37.199c0,6.286-5.114,11.4-11.4,11.4H262.403     c-3.415,0-6.611-1.569-8.744-4.112c17.133-13.78,28.819-35.162,35.631-55.887h82.792c2.729,10.647,16.445,8.215,23.787,21.638     l4.576,8.366c2.036,3.724,5.937,6.037,10.182,6.037c0.103-0.029,6.758,0.227,10.184-6.037l4.575-8.366     c2.258-4.127,5.633-7.502,9.76-9.76l8.366-4.575c2.858-1.564,4.874-4.23,5.662-7.304H471     C477.286,405.998,482.4,411.112,482.4,417.398z M438.714,404.529l-8.366,4.575c-5.809,3.177-10.557,7.926-13.734,13.734     l-4.575,8.366c-0.397,0.728-1.055,0.836-1.41,0.836h-0.001c-0.355,0-1.012-0.108-1.409-0.836l-4.576-8.366     c-3.178-5.809-7.927-10.558-13.734-13.734l-8.366-4.575c-1.125-0.615-1.113-2.213,0-2.821l8.366-4.575     c5.808-3.176,10.557-7.926,13.734-13.734l4.576-8.366c0.608-1.112,2.204-1.125,2.82,0l4.575,8.366     c3.177,5.809,7.926,10.557,13.734,13.734l8.366,4.575C439.827,402.315,439.84,403.914,438.714,404.529z M501,347.399v37.199     c0,6.286-5.114,11.4-11.4,11.4c-16.179,0-28.846,0-42.494,0c-4.409-5.676-15.535-6.098-21.718-17.399l-4.575-8.366     c-4.397-8.036-15.97-8.041-20.367,0l-4.576,8.366c-6.225,11.38-17.22,11.609-21.718,17.399h-81.915     c4.103-15.635,6.266-32.557,6.266-49.999c0-3.355-0.085-6.689-0.242-10c9.646,0,182.668,0,191.339,0     C495.886,335.999,501,341.113,501,347.399z M482.4,277.4v37.199c0,6.286-5.114,11.4-11.4,11.4H297.539     c-1.996-20.667-7.183-41.299-16.402-59.999H471C477.286,266,482.4,271.114,482.4,277.4z"/><path style="fill:#4269A7;" d="M266.003,141.001c0-44.112-35.887-79.999-79.999-79.999s-79.999,35.887-79.999,79.999     S141.892,221,186.003,221S266.003,185.113,266.003,141.001z M116.004,141.001c0-38.597,31.402-69.999,69.999-69.999     s69.999,31.402,69.999,69.999s-31.402,69.999-69.999,69.999S116.004,179.599,116.004,141.001z"/><path style="fill:#4269A7;" d="M234.647,118.617l-14.142-14.142c-1.951-1.953-5.119-1.953-7.07,0l-38.347,38.346l-16.406-16.406     c-1.953-1.955-5.122-1.95-7.07,0l-14.142,14.142c-1.953,1.952-1.953,5.118,0,7.07l34.084,34.084c1.951,1.953,5.119,1.953,7.07,0     l56.025-56.024C236.603,123.734,236.597,120.565,234.647,118.617z M175.088,171.105l-27.012-27.012l7.071-7.071l16.406,16.406     c1.953,1.955,5.122,1.95,7.07,0l38.347-38.346l7.071,7.071L175.088,171.105z"/></g></g></g><g id="Layer_1"/></svg>